# xmcd
#
# Track frame offsets:
#	150
#	18915
#	36097
#	57315
#	73905
#	89660
#	105145
#	124892
#	144367
#	156455
#	174457
#
# Disc length: 2588 seconds
#
# Revision: 1
# Processed by: cddbd v1.5.1PL0 Copyright (c) Steve Scherf et al.
# Submitted via: CDex 1.50Beta5
#
DISCID=940a1a0b
DTITLE=さまざまなアーティスト - 萌えよ剣 全曲集
DYEAR=1900
DGENRE=Other
TTITLE0=折笠愛 松井菜桜子 池澤春菜/萌えよ剣
TTITLE1=折笠愛/俺達の夢
TTITLE2=松井菜桜子/戦士の休息
TTITLE3=池澤春菜/幸せの星
TTITLE4=横山智佐/ゆっくり
TTITLE5=横山智佐 田中真弓/猫丸音頭
TTITLE6=榊原良子/時代はめぐる
TTITLE7=三木眞一朗/新世界
TTITLE8=笠原瑠美 草尾毅 中島聡彦/団結・つばめ組
TTITLE9=草尾毅 中嶋聡彦/ざんぎりロック
TTITLE10=折笠愛 松井菜桜子 池澤春菜/夜明け
EXTD=
EXTT0=
EXTT1=
EXTT2=
EXTT3=
EXTT4=
EXTT5=
EXTT6=
EXTT7=
EXTT8=
EXTT9=
EXTT10=
PLAYORDER=
